<?xml version="1.0" encoding="utf-8"?>
<!-- Generator: Adobe Illustrator 24.0.2, SVG Export Plug-In . SVG Version: 6.00 Build 0)  -->
<svg version="1.1" id="Layer_1" xmlns="http://www.w3.org/2000/svg" xmlns:xlink="http://www.w3.org/1999/xlink" x="0px" y="0px"
	 viewBox="0 0 432 288" style="enable-background:new 0 0 432 288;" xml:space="preserve">
<style type="text/css">
	.st0{fill:#F9C18F;}
</style>
<g>
	<g>
		<g>
			<path class="st0" d="M436.08,255.44v-3.09l-65.88-32.32L436.08,255.44z M378.22,154.41l57.86,5.6v-0.97L378.22,154.41z
				 M436.08,134.98l-84.3,2.21l84.3-0.86V134.98z M436.08,209.36l-17.31-5.22l17.31,5.7V209.36z M-4.08,92.12l73.65,15.61
				L-4.08,90.52V92.12z M436.08,229.16v-1.25l-35.93-13.76L436.08,229.16z M436.08,193.38l-6.89-1.59l6.89,1.75V193.38z
				 M436.08,7.88V4.51l-4.36-0.98L316.12,77.5L436.08,7.88z M436.08,79.25v-1.05l-42.1,12.15L436.08,79.25z M436.08,98.92v-0.04
				l-2.24,0.44L436.08,98.92z M436.08,92.63v-1.34l-62.36,14.17L436.08,92.63z M435.92,49.58l-5.14-1.69l-103.2,44.77L435.92,49.58z
				 M436.08,53.43v-2.32l-67.77,27.91L436.08,53.43z M436.08,117.72l-32.09,3.42l32.09-2.87V117.72z M233.99,286.43h8.92
				l-16.79-75.9L233.99,286.43z M96.64,250.78l5.08,0.72l42.3-43.7L96.64,250.78z M222.88,252.2l-5.11-46.6l-0.35,46.64
				L222.88,252.2z M56.6,276.28l5.6,0.86l51.32-48.22L56.6,276.28z M-4.08,286.3v0.13h9.54l89.23-64.44L-4.08,286.3z M436.08,62.91
				v-0.78l-25.91,9.43L436.08,62.91z M375.32,232.99l-66.07-37.07l49.52,30.58l-40.11-23.18l112.26,71.49l5.16-1.16v-2.49
				l-64.56-37.3L375.32,232.99z M327.25,223.71l80.16,62.73h9.17L327.25,223.71z M335.02,284.04l-72.77-84.37l62.82,85.45
				L335.02,284.04z M292.72,286.43h6.3l-31.76-51.65L292.72,286.43z M347.79,286.43h6.6l-50.31-50.37L347.79,286.43z M436.08,181.57
				l-84.93-15.52l84.93,17.24V181.57z M-4.08,235.3v5.28l133.64-62.66L-4.08,235.3z M436.08,217.62v-3.15l-105.66-34.79
				L436.08,217.62z M436.08,184.59v-0.22l-10.82-2.08L436.08,184.59z M-4.08,149.99v1.15l70.74-4L-4.08,149.99z M393.66,139.14
				l42.42,0.19v-0.68L393.66,139.14z M-4.08,183.52v2.43l116.2-25.21L-4.08,183.52z M-4.08,111.34l10,1.22l-10-1.4V111.34z
				 M436.08,32.39v-3.48l-78.76,40.47L436.08,32.39z M-4.08,71.43l41.31,12.5L-4.08,70.29V71.43z M-4.08,61.67l19.28,6.63
				l-19.28-7.23V61.67z M-4.08,189.66v0.94l42.15-10.22L-4.08,189.66z M160.55,286.43h6.01l14.31-50.54L160.55,286.43z
				 M150.54,275.91L170.05,230l-24.87,45.55L150.54,275.91z M226.43,286.43h7.28l-10.21-62.04L226.43,286.43z M94.84,286.43h6.95
				l39.7-54.67L94.84,286.43z M-4.08,257.15v4.86l95.22-54.61L-4.08,257.15z M-4.08,216.48v2.46l79.67-29.68L-4.08,216.48z
				 M-4.08,123.74L76,129.15l-80.08-6.75V123.74z M240.98,1.57h-4.62l-4.52,39.25L240.98,1.57z M92.83,1.57h-9.12L152,71.5
				L92.83,1.57z M170.25,1.57h-5.57l18.5,46.87L170.25,1.57z M139.08,20l41.23,63.07L146.5,19.4L139.08,20z M413.3,1.57h-7.12
				l-64.11,47.74L413.3,1.57z M12.47,1.57h-2.36L3.58,2.9l111.36,70.51L12.47,1.57z M320.15,16.09l-69.28,83.05l52.23-54.17
				l-6.64,7.57l43.02-42.69l-2.92-0.37l7.76-7.9h-6.56l-12.87,15.1L320.15,16.09z M-4.08,19.79v4.38l29.47,15.15l-2.49,0.63
				l99.22,50.51l-88.29-49.3L-4.08,19.79z M48.72,1.57h-7.94l73.11,56.28L48.72,1.57z M253.58,1.57h-7.79l-12.79,65.92L253.58,1.57z
				 M-4.08,43.49l58.89,25.12L-4.08,41.19V43.49z M126.65,1.57h-6.89l39.94,55.57L126.65,1.57z M287.72,1.57h-5.93l-21.83,48.9
				L287.72,1.57z M190.17,1.57h-5.04l10.64,42.79L190.17,1.57z"/>
		</g>
	</g>
</g>
</svg>
